<?xml version="1.0" encoding="UTF-8" standalone="no"?>
<svg
   width="128"
   height="128"
   version="1.1"
   id="svg6"
   sodipodi:docname="icon.svg"
   inkscape:version="1.4.2 (ebf0e940d0, 2025-05-08)"
   xmlns:inkscape="http://www.inkscape.org/namespaces/inkscape"
   xmlns:sodipodi="http://sodipodi.sourceforge.net/DTD/sodipodi-0.dtd"
   xmlns:xlink="http://www.w3.org/1999/xlink"
   xmlns="http://www.w3.org/2000/svg"
   xmlns:svg="http://www.w3.org/2000/svg">
  <defs
     id="defs6" />
  <sodipodi:namedview
     id="namedview6"
     pagecolor="#ffffff"
     bordercolor="#000000"
     borderopacity="0.25"
     inkscape:showpageshadow="2"
     inkscape:pageopacity="0.0"
     inkscape:pagecheckerboard="0"
     inkscape:deskcolor="#d1d1d1"
     inkscape:zoom="2.4141067"
     inkscape:cx="-3.5209711"
     inkscape:cy="61.30632"
     inkscape:window-width="1920"
     inkscape:window-height="1080"
     inkscape:window-x="0"
     inkscape:window-y="0"
     inkscape:window-maximized="0"
     inkscape:current-layer="svg6" />
  <rect
     width="124"
     height="124"
     x="2"
     y="2"
     fill="#363d52"
     stroke="#212532"
     stroke-width="4"
     rx="14"
     id="rect1" />
  <g
     fill="#fff"
     transform="translate(12.322 12.322)scale(.101)"
     id="g4">
    <path
       d="M105 673v33q407 354 814 0v-33z"
       id="path1" />
    <path
       fill="#478cbf"
       d="m105 673 152 14q12 1 15 14l4 67 132 10 8-61q2-11 15-15h162q13 4 15 15l8 61 132-10 4-67q3-13 15-14l152-14V427q30-39 56-81-35-59-83-108-43 20-82 47-40-37-88-64 7-51 8-102-59-28-123-42-26 43-46 89-49-7-98 0-20-46-46-89-64 14-123 42 1 51 8 102-48 27-88 64-39-27-82-47-48 49-83 108 26 42 56 81zm0 33v39c0 276 813 276 814 0v-39l-134 12-5 69q-2 10-14 13l-162 11q-12 0-16-11l-10-65H446l-10 65q-4 11-16 11l-162-11q-12-3-14-13l-5-69z"
       id="path2" />
    <path
       d="M483 600c0 34 58 34 58 0v-86c0-34-58-34-58 0z"
       id="path3" />
    <circle
       cx="725"
       cy="526"
       r="90"
       id="circle3" />
    <circle
       cx="299"
       cy="526"
       r="90"
       id="circle4" />
  </g>
  <g
     fill="#414042"
     transform="translate(12.322 12.322)scale(.101)"
     id="g6">
    <circle
       cx="307"
       cy="532"
       r="60"
       id="circle5" />
    <circle
       cx="717"
       cy="532"
       r="60"
       id="circle6" />
  </g>
  <path
     style="fill:#363d52;fill-opacity:1;stroke:#000000;stroke-width:0.207116"
     d="m 41.465166,71.674063 c -3.557976,-1.269161 -5.107984,-5.235563 -3.303167,-8.45266 2.020088,-3.60082 6.828592,-4.113932 9.61805,-1.026335 1.097475,1.214774 1.484532,2.423057 1.366308,4.265237 -0.115476,1.799366 -0.70247,2.984024 -2.050167,4.137602 -1.499472,1.283492 -3.811221,1.725295 -5.631024,1.076156 z"
     id="path6" />
  <path
     style="fill:#363d52;fill-opacity:1;stroke:#000000;stroke-width:0.207116"
     d="m 46.704646,90.28824 c -3.246543,-0.262577 -6.009414,-0.48328 -6.139712,-0.490446 -0.149787,-0.0082 -0.284758,-0.717557 -0.367026,-1.928854 -0.340197,-5.008921 -0.359025,-5.138988 -0.821901,-5.677113 -0.439222,-0.510625 -0.594549,-0.534634 -7.899295,-1.220969 -4.098194,-0.385055 -7.660967,-0.7031 -7.917273,-0.706766 l -0.466011,-0.0067 V 67.875393 55.49336 l -1.378517,-1.857188 c -1.610989,-2.17038 -4.213614,-6.103367 -4.213614,-6.36745 0,-0.707556 4.571866,-6.910523 6.987876,-9.480936 l 1.225551,-1.303873 2.403254,1.26227 c 1.32179,0.694249 3.141264,1.735685 4.043277,2.314302 0.902012,0.578616 1.730968,1.05203 1.842125,1.05203 0.111156,0 0.428054,-0.243152 0.704217,-0.54034 0.707943,-0.761839 4.752419,-3.756667 6.662572,-4.93346 1.33619,-0.823189 1.587525,-1.062459 1.50576,-1.433469 -0.182372,-0.827512 -0.504656,-4.364573 -0.645489,-7.084215 l -0.140004,-2.703666 1.426861,-0.635906 c 3.580152,-1.595559 10.527853,-3.786171 10.882702,-3.431321 0.346064,0.346065 2.128744,3.605455 3.312874,6.057145 l 1.250421,2.588949 5.093093,-0.02006 5.09309,-0.02007 0.959564,-2.051094 c 1.718953,-3.674304 3.524337,-6.737043 3.905107,-6.624804 0.187262,0.0552 1.091651,0.2888 2.00975,0.519113 2.138723,0.536516 5.989197,1.864129 8.086382,2.788119 l 1.635721,0.720676 0.06557,1.619155 c 0.03606,0.890535 -0.09402,3.245667 -0.28907,5.233626 -0.257668,2.626168 -0.291056,3.635664 -0.122109,3.69198 0.596063,0.198688 5.295806,3.475081 6.869763,4.789209 0.968267,0.808425 1.822187,1.469991 1.897602,1.470148 0.07541,1.58e-4 1.057772,-0.582228 2.183021,-1.294189 1.125248,-0.711961 2.944244,-1.760412 4.042212,-2.329891 l 1.99631,-1.035417 1.20568,1.327083 c 2.4221,2.665975 4.60494,5.548447 6.55496,8.655934 l 0.5461,0.870241 -1.9231,2.857846 c -1.0577,1.571815 -2.31386,3.370458 -2.79146,3.996984 l -0.86835,1.139137 -9e-4,12.478736 -8.9e-4,12.478736 -0.46601,0.0056 c -0.2563,0.0031 -3.85188,0.321459 -7.990162,0.707467 -8.191981,0.764125 -8.204569,0.767205 -8.419158,2.059619 -0.05887,0.35458 -0.182908,1.970764 -0.275632,3.591521 -0.09273,1.620757 -0.219568,2.997806 -0.281874,3.060113 -0.129408,0.12941 -12.861345,1.152339 -12.971506,1.042179 -0.03966,-0.03966 -0.278886,-1.536871 -0.531603,-3.327128 -0.427423,-3.027863 -0.499435,-3.289372 -1.031922,-3.747396 L 72.57104,83.157018 H 63.998828 55.426616 L 54.87396,83.63239 c -0.513395,0.441607 -0.583769,0.713788 -0.990658,3.831645 -0.405477,3.107021 -0.469118,3.354243 -0.856928,3.328929 -0.230408,-0.01504 -3.075185,-0.24218 -6.321727,-0.504758 z M 65.766091,75.179582 c 1.160351,-0.60004 1.235917,-1.010948 1.235917,-6.720519 v -5.191225 l -0.698451,-0.762143 c -0.640593,-0.699008 -0.807876,-0.768887 -2.01938,-0.843567 -1.128314,-0.06955 -1.426194,-0.0099 -2.042818,0.408949 -1.2313,0.836411 -1.25592,0.974863 -1.196244,6.726896 l 0.05409,5.213377 0.51779,0.55674 c 0.284784,0.306207 0.704194,0.633841 0.932021,0.728077 0.690403,0.28557 2.571202,0.21741 3.217075,-0.116585 z M 44.242764,74.457089 c 2.823059,-0.526868 5.291493,-2.463589 6.580782,-5.16325 0.719369,-1.506298 0.748324,-1.655076 0.748324,-3.8452 0,-2.190125 -0.02895,-2.338903 -0.748324,-3.845201 -2.767533,-5.794974 -10.241527,-7.139606 -14.739472,-2.651747 -5.067968,5.056601 -2.66216,13.676448 4.303535,15.419275 1.304102,0.326288 2.433153,0.351511 3.855155,0.08612 z M 87.69566,74.346075 c 1.824199,-0.429992 3.125007,-1.187013 4.479162,-2.606704 3.508617,-3.678416 3.372535,-9.380548 -0.307642,-12.890842 -5.343052,-5.096409 -14.05304,-2.196724 -15.36846,5.116391 -0.819716,4.557222 2.26813,9.277802 6.783529,10.370405 1.608017,0.389096 2.796026,0.39199 4.413411,0.01075 z"
     id="path7" />
  <path
     style="fill:#363d52;fill-opacity:1;stroke:#000000;stroke-width:0.207116"
     d="M 58.199581,108.20005 C 49.395583,107.60357 40.790853,105.56155 34.823792,102.65264 29.064205,99.844868 25.071882,95.903893 23.676588,91.648806 23.325476,90.578053 23.216064,89.629 23.141942,87.011196 l -0.09319,-3.291356 1.213257,0.125974 c 0.667291,0.06929 3.589912,0.329813 6.494713,0.578949 2.904801,0.249137 5.358518,0.520352 5.452706,0.602701 0.09419,0.08235 0.289101,1.760768 0.433144,3.729821 0.242604,3.316402 0.296755,3.608323 0.735183,3.963341 0.260308,0.210785 0.671208,0.423476 0.913109,0.472647 0.241902,0.04917 4.13997,0.333357 8.662374,0.631524 8.288799,0.54649 8.657428,0.540252 9.23551,-0.156295 0.128354,-0.154657 0.424786,-1.534478 0.658738,-3.066268 0.233954,-1.53179 0.478185,-3.041379 0.542737,-3.354642 l 0.117369,-0.569569 h 6.566517 6.566518 l 0.498031,3.362332 c 0.426328,2.878252 0.56837,3.432672 0.986603,3.850905 0.556531,0.556531 -0.829779,0.587971 11.527082,-0.261424 l 6.605205,-0.454033 0.467723,-0.543761 c 0.396306,-0.460733 0.490561,-0.885657 0.617278,-2.782879 0.08225,-1.231515 0.208113,-2.844932 0.279686,-3.585372 l 0.130133,-1.346254 6.10992,-0.553499 c 3.360452,-0.304425 6.379912,-0.560731 6.709902,-0.569569 l 0.59999,-0.01607 -0.12482,2.951402 c -0.21279,5.031666 -1.2207,7.44629 -4.48568,10.746335 -3.867961,3.909494 -9.104258,6.565204 -16.886834,8.564554 -7.192371,1.84773 -17.357398,2.70935 -25.475261,2.15936 z"
     id="path8" />
  <path
     style="fill:#363d52;fill-opacity:1;stroke:#000000;stroke-width:0.207116"
     d="M 58.096023,108.00286 C 49.726391,107.40115 40.92802,105.30275 35.174368,102.53607 28.397703,99.277471 24.055286,94.4562 23.50299,89.577646 c -0.29439,-2.600417 -0.264172,-5.592695 0.05645,-5.58976 0.142392,0.0013 2.728752,0.233242 5.747467,0.51542 3.018715,0.282177 5.674977,0.515543 5.902805,0.518591 0.227827,0.003 0.523281,0.07491 0.656564,0.159694 0.144972,0.09222 0.372103,1.517553 0.565335,3.547692 0.360432,3.78678 0.531007,4.237228 1.728666,4.564986 0.924941,0.253124 12.76788,1.048547 15.598505,1.047663 1.260652,-3.94e-4 2.105248,-0.09466 2.32517,-0.259514 0.358769,-0.268934 0.763345,-1.922357 1.178291,-4.815446 0.130707,-0.91131 0.284857,-1.820031 0.342555,-2.01938 0.097,-0.335121 0.588027,-0.362453 6.511546,-0.362453 4.437782,0 6.406636,0.06854 6.406636,0.22303 0,0.867384 0.918582,5.978174 1.157532,6.440251 0.591741,1.144298 -0.262486,1.132692 13.389327,0.181922 6.703049,-0.466829 6.161368,-0.04804 6.576807,-5.084718 0.112752,-1.366965 0.205965,-2.726037 0.207139,-3.02016 l 0.0021,-0.534769 5.436793,-0.462951 c 2.990232,-0.254623 5.940812,-0.517849 6.556832,-0.584947 l 1.12004,-0.121996 -0.14363,2.720619 c -0.26985,5.111569 -1.21401,7.357526 -4.46473,10.620607 -2.697126,2.707386 -5.223325,4.374323 -9.20463,6.073753 -5.245659,2.23912 -12.11684,3.78536 -19.805154,4.45679 -3.583882,0.31298 -10.336807,0.42011 -13.25542,0.21029 z"
     id="path9" />
  <path
     style="fill:#363d52;fill-opacity:1;stroke:#000000;stroke-width:0.207116"
     d="M 54.782167,107.49284 C 37.615251,105.39236 26.179742,99.175043 23.925975,90.716784 23.614963,89.549573 23.395582,84.493462 23.64915,84.336749 c 0.111409,-0.06885 2.71151,0.102202 5.778003,0.380125 3.066493,0.277923 5.728442,0.50667 5.915442,0.508326 0.427327,0.0038 0.504026,0.319554 0.899378,3.702711 0.344394,2.947097 0.662383,4.01005 1.302041,4.352385 0.494773,0.264794 3.42504,0.551886 9.774057,0.957608 5.315099,0.339652 7.266203,0.381171 8.290006,0.17641 0.887333,-0.177466 1.145031,-0.824746 1.704432,-4.281162 0.24303,-1.501623 0.542043,-2.798698 0.664472,-2.882389 0.290714,-0.198728 11.74797,-0.198698 12.060262,3.2e-5 0.131541,0.08371 0.438288,1.270609 0.68166,2.637557 0.562535,3.159605 0.773946,3.943431 1.170596,4.340082 0.441768,0.441767 2.910174,0.419763 10.350941,-0.09227 7.757753,-0.533847 7.871953,-0.549976 8.605272,-1.215324 0.652005,-0.591572 0.803897,-1.373173 1.122634,-5.776806 0.120724,-1.667932 0.187711,-1.915823 0.517703,-1.915823 0.208471,0 2.96322,-0.233005 6.121666,-0.517789 3.158445,-0.284785 5.834325,-0.51779 5.946405,-0.51779 0.12987,0 0.1529,0.845154 0.0635,2.330054 -0.31259,5.191919 -1.17879,7.238445 -4.46107,10.539964 -3.251639,3.2707 -6.610125,5.28939 -11.834998,7.1137 -4.391719,1.5334 -11.068758,2.87516 -16.970109,3.41016 -3.266792,0.29615 -13.873338,0.23619 -16.569276,-0.0937 z"
     id="path10" />
  <path
     style="fill:#363d52;fill-opacity:1;stroke:#000000;stroke-width:0.207116"
     d="m 72.420103,93.788399 c -0.405456,-0.328317 -0.558711,-0.844036 -0.97588,-3.283919 -0.272188,-1.591939 -0.497617,-3.150741 -0.50095,-3.464004 l -0.0061,-0.569569 H 64.111769 57.28633 l -0.1127,0.673127 c -0.06199,0.37022 -0.304713,1.838154 -0.539397,3.262076 -0.586527,3.558718 -0.553863,3.520971 -3.046897,3.520971 -2.010468,0 -14.256396,-0.760501 -15.08936,-0.937085 -0.241901,-0.05128 -0.642319,-0.257526 -0.889817,-0.45832 -0.405048,-0.328615 -0.481489,-0.726807 -0.765299,-3.986554 -0.173417,-1.99181 -0.359651,-3.665821 -0.413853,-3.720023 -0.0909,-0.0909 -11.815723,-1.225197 -12.869568,-1.24504 -0.441068,-0.0083 -0.466011,-0.09192 -0.466011,-1.562145 0,-1.341758 0.04938,-1.553213 0.362453,-1.552225 0.653243,0.0021 13.599705,1.242884 14.342779,1.374648 1.021533,0.181142 1.440677,0.437259 1.660108,1.014407 0.104758,0.275534 0.296263,1.970806 0.425566,3.767273 0.129304,1.796467 0.253566,3.286567 0.276139,3.311333 0.112459,0.123387 13.249978,1.085089 13.357492,0.977805 0.06879,-0.06864 0.330586,-1.585085 0.58178,-3.369881 0.415609,-2.953025 0.505191,-3.287026 0.99535,-3.711095 l 0.538636,-0.466011 h 8.4441 8.444101 l 0.42653,0.466011 c 0.552987,0.604173 0.595322,0.765777 1.095205,4.180828 0.232371,1.587494 0.447488,2.911347 0.478036,2.941895 0.08528,0.08528 13.251145,-0.951231 13.351004,-1.05109 0.04825,-0.04825 0.181674,-1.562265 0.296489,-3.364468 0.114814,-1.802204 0.316614,-3.50974 0.448443,-3.794524 0.175649,-0.379448 0.510713,-0.584827 1.254087,-0.768697 0.791537,-0.195784 13.832514,-1.509959 14.980724,-1.509648 0.18409,4.9e-5 0.25889,0.448858 0.25889,1.553439 0,1.552555 -3e-4,1.553378 -0.56957,1.569675 -0.31326,0.009 -3.36563,0.265274 -6.783044,0.569569 l -6.213478,0.553264 -0.251978,3.106739 c -0.138587,1.708706 -0.305156,3.405607 -0.370153,3.770891 -0.240045,1.349039 -0.356751,1.375895 -8.20454,1.888002 -3.916691,0.255584 -7.727908,0.518052 -8.469371,0.583263 -1.125934,0.09903 -1.427383,0.05438 -1.829103,-0.270918 z"
     id="path11" />
  <path
     style="fill:#363d52;fill-opacity:1;stroke:#000000;stroke-width:0.207116"
     d="m 72.61314,93.564628 c -0.466502,-0.383309 -1.090161,-3.046652 -1.383218,-5.907049 l -0.142798,-1.393788 h -6.981995 -6.981996 l -0.461196,2.792166 c -0.776689,4.702227 -0.752036,4.664008 -3.00857,4.664008 -1.72487,0 -11.456512,-0.575473 -13.75643,-0.813476 -2.432469,-0.25172 -2.420224,-0.233635 -2.814735,-4.157307 -0.454258,-4.5179 -0.190401,-4.05011 -2.439507,-4.324978 -1.884811,-0.230347 -10.553785,-1.060036 -11.075744,-1.060036 -0.190163,0 -0.266407,-0.39035 -0.266407,-1.363925 v -1.363925 l 1.605148,0.140676 c 6.738755,0.590587 13.299603,1.325838 13.688627,1.534037 0.67447,0.360966 0.791947,0.829027 1.085148,4.323544 0.144925,1.727296 0.317944,3.228631 0.384487,3.336299 0.132079,0.213708 6.095341,0.758186 10.723628,0.979125 l 2.912568,0.139036 0.121354,-0.600357 c 0.06675,-0.330197 0.3132,-1.809174 0.547678,-3.286615 0.329008,-2.073075 0.527597,-2.794058 0.869989,-3.158518 l 0.443667,-0.472261 h 8.431829 8.431831 l 0.370537,0.565509 c 0.225648,0.344384 0.571014,1.795864 0.883243,3.712027 0.394751,2.422598 0.588976,3.166257 0.844201,3.232312 0.371928,0.09626 12.288692,-0.797304 12.994069,-0.974343 0.407207,-0.102202 0.465696,-0.293035 0.590461,-1.92644 0.274258,-3.590604 0.51531,-5.314313 0.78022,-5.579223 0.148314,-0.148313 0.779591,-0.360943 1.40284,-0.472511 1.113884,-0.199396 13.263971,-1.456954 14.076591,-1.456954 0.37262,0 0.41557,0.136657 0.41557,1.322389 v 1.322389 l -1.08736,0.122917 c -0.59805,0.0676 -3.55722,0.323554 -6.575934,0.568777 -3.171902,0.257668 -5.585948,0.54369 -5.719273,0.677633 -0.126885,0.127474 -0.344402,1.714184 -0.483369,3.526021 -0.138968,1.811838 -0.332829,3.505083 -0.430799,3.762769 -0.135566,0.356563 -0.440739,0.521915 -1.277116,0.691981 -0.796003,0.161856 -14.855118,1.260544 -16.130271,1.260544 -0.08022,0 -0.344351,-0.163104 -0.586968,-0.362453 z"
     id="path12" />
  <path
     style="fill:#363d52;fill-opacity:1;stroke:#000000;stroke-width:0.207116"
     d="M 56.128421,107.38708 C 51.272698,107.01317 44.051776,105.45805 39.559145,103.81867 31.464452,100.86486 25.888886,96.281789 24.345712,91.313332 24.099515,90.520669 23.896653,89.027056 23.804202,87.32635 l -0.147833,-2.719486 1.116562,0.0016 c 1.356358,0.002 10.572939,0.790408 10.697674,0.915143 0.04886,0.04886 0.29912,1.521761 0.556142,3.273122 0.510142,3.476123 0.779741,4.271749 1.576963,4.653848 0.633718,0.303733 6.039812,0.796527 12.447049,1.134615 5.469698,0.288617 6.236108,0.182051 6.689483,-0.930147 0.147972,-0.363002 0.478758,-1.825031 0.735079,-3.248953 0.25632,-1.423922 0.558851,-2.705452 0.672288,-2.847844 0.305887,-0.383966 11.401944,-0.37245 11.721145,0.01216 0.123729,0.149083 0.471986,1.523815 0.773905,3.05496 0.301921,1.531146 0.677505,3.034405 0.834634,3.340577 0.493114,0.960862 1.677388,0.986193 12.197549,0.260909 5.465705,-0.376819 6.651122,-0.566527 7.289911,-1.166638 0.636578,-0.598034 0.82793,-1.401496 1.100716,-4.621729 0.125444,-1.480879 0.297642,-2.762673 0.382661,-2.848431 0.109115,-0.110063 11.01354,-1.19033 12.01542,-1.19033 0.17276,0 -0.21209,4.291902 -0.52001,5.799246 -0.5169,2.530378 -1.48489,4.119957 -4.104877,6.740778 -2.405138,2.405907 -4.062258,3.61377 -6.95591,5.0701 -4.57358,2.30181 -10.962985,4.02129 -18.942361,5.09766 -2.695353,0.36358 -14.346041,0.54644 -17.811971,0.27955 z"
     id="path13" />
  <use
     id="use13"
     inkscape:spray-origin="#path13"
     xlink:href="#path13"
     transform="translate(5.4435771,-22.948051)" />
  <use
     id="use14"
     inkscape:spray-origin="#path13"
     xlink:href="#path13"
     transform="translate(-0.41945559,-8.4696586)" />
  <path
     style="fill:#363d52;fill-opacity:1;stroke:#000000"
     d="m 43.701464,29.410464 c -0.492729,1.449228 -2.01061,1.951023 -2.899623,3.106739 -0.06517,0.08471 -2.964701,4.822237 -0.828464,2.899624 0.545497,-0.490948 1.15499,-0.914411 1.656928,-1.449812 0.538372,-0.574264 1.124082,-1.147438 1.449812,-1.864044 0.38115,-0.838529 -0.0099,-2.021769 0.621347,-2.692507 0.643576,-0.683799 1.87165,-0.372432 2.692508,-0.828464 0.320889,-0.178271 1.406557,-2.278275 1.864043,-2.278275"
     id="path14" />
  <rect
     style="fill:#363d52;fill-opacity:1;stroke:#000000;stroke-opacity:0"
     id="rect15"
     width="109.1501"
     height="100.24412"
     x="10.355797"
     y="14.912348" />
  <text
     xml:space="preserve"
     style="font-weight:bold;font-size:37.3333px;font-family:'Liberation Sans';-inkscape-font-specification:'Liberation Sans Bold';text-align:start;writing-mode:lr-tb;direction:ltr;text-anchor:start;fill:#363d52;fill-opacity:1;stroke:#000000;stroke-opacity:1"
     x="9.7344484"
     y="77.461365"
     id="text15"><tspan
       sodipodi:role="line"
       id="tspan15"
       x="9.7344484"
       y="77.461365"
       style="font-size:37.3333px;fill:#e8f600;fill-opacity:1;stroke:#000000;stroke-opacity:0">BUGS</tspan></text>
  <ellipse
     style="fill:#000000;fill-opacity:0;fill-rule:nonzero;stroke:#f20000;stroke-width:5.37787;stroke-dasharray:none;stroke-dashoffset:0;stroke-opacity:1;paint-order:normal"
     id="path15"
     cx="64.620178"
     cy="63.066803"
     rx="56.660835"
     ry="56.971512" />
  <path
     style="fill:#000000;fill-opacity:0;fill-rule:nonzero;stroke:#f20000;stroke-width:5.2;stroke-dasharray:none;stroke-dashoffset:0;stroke-opacity:1;paint-order:normal"
     d="M 25.268145,105.00778 92.995059,18.847551"
     id="path17" />
</svg>
